<svg xmlns="http://www.w3.org/2000/svg" width="64" height="64" viewBox="0 0 64 64"><path d="M55.979 22.058C55.48 10.736 46.006 2 34 2 23.401 2 14.37 8.68 12.189 18H11C5.038 18 0 23.495 0 30c0 6.271 4.729 11 11 11h44c5.131 0 9-3.869 9-9 0-4.53-3.182-9.361-8.021-9.942zM55 39H11c-5.131 0-9-3.869-9-9 0-5.42 4.122-10 9-10h2.83l.153-.815C15.637 10.386 24.055 4 34 4c11.215 0 20 8.346 20 19v1h1c4.125 0 7 4.216 7 8 0 3.991-3.009 7-7 7z"/><path d="M15.5 58.882h2v2.236h-2z" transform="scale(-1) rotate(26.565 254.172 -69.897)"/><path d="M5.5 58.882h2v2.236h-2z" transform="scale(-1) rotate(26.565 254.172 -27.535)"/><path d="M25.5 58.882h2v2.236h-2z" transform="scale(-1) rotate(26.565 254.172 -112.26)"/><path d="M35.5 58.882h2v2.236h-2z" transform="scale(-1) rotate(26.565 254.172 -154.621)"/><path d="M45.5 58.882h2v2.236h-2z" transform="scale(-1) rotate(26.565 254.172 -196.983)"/><path d="M22.382 52h2.236v2h-2.236z" transform="rotate(-63.435 23.5 53.002)"/><path d="M12.5 51.882h2v2.236h-2z" transform="rotate(26.565 13.5 53.002)"/><path d="M32.382 52h2.236v2h-2.236z" transform="rotate(-63.435 33.501 53.002)"/><path d="M42.382 52h2.236v2h-2.236z" transform="rotate(-63.435 43.501 53.002)"/><path d="M52.382 52h2.236v2h-2.236z" transform="rotate(-63.435 53.502 53.002)"/><path d="M17.5 43.882h2v2.236h-2z" transform="rotate(26.565 18.5 45.001)"/><path d="M7.5 43.882h2v2.236h-2z" transform="rotate(26.565 8.5 45.001)"/><path d="M27.5 43.882h2v2.236h-2z" transform="rotate(26.565 28.5 45.001)"/><path d="M37.5 43.882h2v2.236h-2z" transform="rotate(26.565 38.501 45.001)"/><path d="M47.5 43.882h2v2.236h-2z" transform="rotate(26.565 48.502 45.001)"/></svg>