<svg xmlns="http://www.w3.org/2000/svg" width="64" height="64" viewBox="0 0 64 64"><path d="M5.383 33.022A11.983 11.983 0 005 36c0 5.794 4.206 10 10 10h41c4.71 0 8-3.29 8-8 0-4.493-2.783-9.282-7.024-9.927C56.439 18.025 47.236 10 36 10c-4.097 0-7.938 1.156-11.156 3.157A13.934 13.934 0 0014 8C6.28 8 0 14.28 0 22c0 2.682.761 5.288 2.201 7.538a14.166 14.166 0 003.182 3.484zM55 29v1h1c3.536 0 6 4.216 6 8 0 3.645-2.355 6-6 6H15c-4.71 0-8-3.29-8-8 0-4.962 3.589-9 8-9h2.829l.153-.815C19.528 17.965 27.105 12 36 12c10.477 0 19 7.626 19 17zM14 10c3.591 0 6.929 1.581 9.197 4.291-3.457 2.653-5.989 6.375-7.008 10.709H15c-3.88 0-7.242 2.448-8.9 6.009a12.17 12.17 0 01-2.214-2.549A11.955 11.955 0 012 22c0-6.617 5.383-12 12-12zM19 48h2v14h-2zM29 48h2v14h-2zM39 48h2v14h-2zM49 48h2v14h-2z"/></svg>