<svg xmlns="http://www.w3.org/2000/svg" width="64" height="64" viewBox="0 0 64 64"><path d="M56.975 28.073C56.439 18.025 47.236 10 36 10c-1.959 0-3.854.275-5.658.769A13.847 13.847 0 0022 8C14.28 8 8 14.28 8 22c0 2.164.487 3.615 1.247 5.018C6.683 29.011 5 32.291 5 36c0 5.794 4.206 10 10 10h41c4.71 0 8-3.29 8-8 0-4.493-2.783-9.282-7.025-9.927zM10 22c0-6.617 5.383-12 12-12 2.119 0 4.143.547 5.943 1.58-5.84 2.384-10.312 7.286-11.754 13.42H15a9.17 9.17 0 00-4.05.951C10.292 24.7 10 23.618 10 22zm46 22H15c-4.71 0-8-3.29-8-8 0-4.962 3.589-9 8-9h2.83l.153-.815C19.528 17.965 27.105 12 36 12c10.477 0 19 7.626 19 17v1h1c3.536 0 6 4.216 6 8 0 3.645-2.355 6-6 6zM0 21h6v2H0zM21 0h2v6h-2z"/><path d="M2.757 6h8.485v2H2.757z" transform="rotate(45.001 7 7)"/><path d="M23 48h2v4h-2zM23 56h2v4h-2z"/><path d="M26 49.586h2v2.828h-2z" transform="rotate(-134.999 27 51)"/><path d="M20 55.586h2v2.828h-2z" transform="rotate(-134.999 21 57)"/><path d="M26 55.586h2v2.828h-2z" transform="rotate(134.999 27 57)"/><path d="M20 49.586h2v2.828h-2z" transform="rotate(-45.001 21 51)"/><path d="M26 53h4v2h-4zM18 53h4v2h-4zM43 50h2v4h-2zM43 58h2v4h-2z"/><path d="M46 51.586h2v2.828h-2z" transform="rotate(-134.999 47 53)"/><path d="M40 57.586h2v2.828h-2z" transform="rotate(-134.999 41 59)"/><path d="M46 57.586h2v2.828h-2z" transform="rotate(134.999 47 59)"/><path d="M40 51.586h2v2.828h-2z" transform="rotate(-45.001 41 53)"/><path d="M46 55h4v2h-4zM38 55h4v2h-4z"/></svg>