<svg xmlns="http://www.w3.org/2000/svg" width="64" height="64" viewBox="0 0 64 64"><path d="M56.976 28.073C56.439 18.025 47.236 10 36 10c-4.097 0-7.938 1.156-11.156 3.157A13.934 13.934 0 0011.401 8.25l-1.454.274.796 1.247A7.97 7.97 0 0112 14.062c0 4.411-3.589 8-8 8-.89 0-1.781-.154-2.649-.459l-1.392-.489.062 1.474a13.98 13.98 0 002.181 6.95 14.146 14.146 0 003.182 3.484A11.936 11.936 0 005 36c0 5.794 4.206 10 10 10h41c4.71 0 8-3.29 8-8 0-4.493-2.783-9.282-7.024-9.927zm-53.091.387a11.93 11.93 0 01-1.73-4.573A9.811 9.811 0 004 24.062c5.514 0 10-4.486 10-10a9.942 9.942 0 00-.853-4.03 11.952 11.952 0 0110.05 4.259C19.74 16.944 17.208 20.666 16.189 25H15c-3.88 0-7.243 2.448-8.9 6.009a12.095 12.095 0 01-2.215-2.549zM56 44H15c-4.71 0-8-3.29-8-8 0-4.962 3.589-9 8-9h2.829l.153-.815C19.528 17.965 27.105 12 36 12c10.477 0 19 7.626 19 17v1h1c3.536 0 6 4.216 6 8 0 3.645-2.355 6-6 6zM31.081 47.606L27.483 56h4.793l-3.144 5.504 1.736.992L35.724 54h-5.207l2.402-5.606zM41.081 47.606L37.483 56h4.793l-3.144 5.504 1.736.992L45.724 54h-5.207l2.402-5.606zM21.081 47.606L17.483 56h4.793l-3.144 5.504 1.736.992L25.724 54h-5.207l2.402-5.606z"/></svg>