<svg xmlns="http://www.w3.org/2000/svg" width="64" height="64" viewBox="0 0 64 64"><path d="M0 36h10v2H0zM54 36h10v2H54zM31 4h2v11h-2z"/><path d="M4.343 18h11.314v2H4.343z" transform="rotate(45.001 10 19)"/><path d="M48.343 18h11.314v2H48.343z" transform="rotate(-45.001 54 19)"/><path d="M39.707 53.854l-1.414-1.488L32 58.623l-6.293-6.311-1.414 1.55 7 7.138h1.414zM52 37c0-11.028-8.972-20-20-20s-20 8.972-20 20c0 3.145.743 6.221 2.146 9H0v2h64v-2H49.854A19.956 19.956 0 0052 37zm-38 0c0-9.925 8.075-18 18-18s18 8.075 18 18c0 3.176-.842 6.272-2.42 9H16.421A17.953 17.953 0 0114 37z"/></svg>